<?xml version="1.0" encoding="utf-8"?>
<!-- Generator: Adobe Illustrator 16.0.0, SVG Export Plug-In . SVG Version: 6.00 Build 0)  -->
<!DOCTYPE svg PUBLIC "-//W3C//DTD SVG 1.1//EN" "http://www.w3.org/Graphics/SVG/1.1/DTD/svg11.dtd">
<svg version="1.1" id="Layer_1" xmlns="http://www.w3.org/2000/svg" xmlns:xlink="http://www.w3.org/1999/xlink" x="0px" y="0px"
	 width="92px" height="81px" viewBox="0 0 92 81" enable-background="new 0 0 92 81" xml:space="preserve">
<g id="Layer_1_1_">
	<path fill="#68C1BE" d="M0,80.51h4.153v-6.737c0-0.457,0.033-0.883,0.098-1.274c0.065-0.395,0.164-0.786,0.36-1.113
		c0.164-0.326,0.425-0.589,0.752-0.785c0.327-0.196,0.785-0.295,1.308-0.295c0.491,0,0.85,0.099,1.112,0.327
		c0.262,0.229,0.426,0.491,0.556,0.818c0.099,0.327,0.164,0.653,0.196,1.015c0.033,0.358,0.033,0.653,0.033,0.882v7.13h4.153v-7.13
		c0-0.392,0.033-0.785,0.131-1.178c0.098-0.359,0.229-0.686,0.425-0.98c0.196-0.262,0.458-0.491,0.785-0.654
		c0.327-0.164,0.72-0.229,1.21-0.229c0.687,0,1.178,0.229,1.439,0.688s0.393,0.981,0.393,1.635v7.85h4.153v-7.979
		c0-0.818-0.065-1.57-0.229-2.29c-0.163-0.72-0.425-1.341-0.784-1.865c-0.36-0.522-0.851-0.947-1.472-1.241
		c-0.622-0.295-1.374-0.459-2.29-0.459c-1.014,0-1.832,0.196-2.518,0.557c-0.687,0.359-1.276,0.98-1.766,1.864
		c-0.36-0.818-0.916-1.439-1.668-1.832c-0.72-0.393-1.57-0.589-2.519-0.589c-0.49,0-0.948,0.066-1.373,0.196
		c-0.426,0.132-0.818,0.295-1.145,0.491c-0.327,0.196-0.622,0.425-0.851,0.688c-0.229,0.261-0.425,0.523-0.556,0.784H4.022V66.97
		h-3.99v13.54H0L0,80.51z"/>
	<path fill="#68C1BE" d="M33.588,73.739c0,1.015-0.294,1.832-0.883,2.486c-0.589,0.621-1.406,0.948-2.453,0.948
		c-1.046,0-1.864-0.326-2.453-0.948c-0.588-0.621-0.883-1.439-0.883-2.486c0-1.013,0.294-1.83,0.883-2.485
		c0.589-0.621,1.407-0.949,2.453-0.949s1.864,0.327,2.453,0.949C33.293,71.909,33.588,72.727,33.588,73.739 M37.741,73.739
		c0-1.078-0.196-2.06-0.588-2.91c-0.392-0.883-0.916-1.603-1.603-2.224c-0.687-0.621-1.472-1.112-2.388-1.439
		s-1.897-0.49-2.944-0.49s-2.027,0.162-2.943,0.49c-0.916,0.327-1.7,0.818-2.388,1.439c-0.687,0.62-1.21,1.373-1.602,2.224
		c-0.393,0.883-0.588,1.832-0.588,2.91c0,1.08,0.196,2.062,0.588,2.911c0.392,0.884,0.915,1.604,1.602,2.225
		c0.688,0.621,1.472,1.112,2.388,1.438c0.916,0.328,1.897,0.491,2.943,0.491s2.028-0.163,2.944-0.491
		c0.916-0.326,1.701-0.817,2.388-1.438c0.687-0.621,1.21-1.374,1.603-2.225C37.578,75.801,37.741,74.819,37.741,73.739"/>
	<path fill="#68C1BE" d="M73.324,73.739c0,1.015-0.294,1.832-0.883,2.486c-0.59,0.621-1.406,0.948-2.453,0.948
		s-1.864-0.326-2.453-0.948c-0.589-0.621-0.883-1.439-0.883-2.486c0-1.013,0.294-1.83,0.883-2.485
		c0.589-0.621,1.406-0.949,2.453-0.949s1.863,0.327,2.453,0.949C73.03,71.909,73.324,72.727,73.324,73.739 M77.512,73.739
		c0-1.078-0.197-2.06-0.59-2.91c-0.392-0.883-0.915-1.603-1.602-2.224s-1.473-1.112-2.389-1.439c-0.915-0.327-1.896-0.49-2.942-0.49
		s-2.027,0.162-2.944,0.49c-0.915,0.327-1.7,0.818-2.388,1.439c-0.686,0.62-1.209,1.373-1.601,2.224
		c-0.394,0.883-0.59,1.832-0.59,2.91c0,1.08,0.196,2.062,0.59,2.911c0.392,0.884,0.915,1.604,1.601,2.225
		c0.688,0.621,1.473,1.112,2.388,1.438c0.917,0.328,1.898,0.491,2.944,0.491s2.027-0.163,2.942-0.491
		c0.916-0.326,1.702-0.817,2.389-1.438s1.21-1.374,1.602-2.225C77.314,75.801,77.512,74.819,77.512,73.739"/>
	<path fill="#68C1BE" d="M49.45,68.442c-0.621-0.655-1.406-1.146-2.322-1.373c-0.916-0.263-1.798-0.393-2.682-0.393
		c-0.72,0-1.406,0.097-2.093,0.261s-1.308,0.458-1.831,0.817c-0.523,0.36-0.948,0.851-1.275,1.406
		c-0.327,0.589-0.491,1.276-0.491,2.06c0,0.851,0.164,1.538,0.524,2.028c0.327,0.523,0.785,0.916,1.308,1.179
		c0.523,0.261,1.079,0.491,1.701,0.62c0.589,0.131,1.177,0.263,1.701,0.393c0.523,0.132,0.948,0.262,1.308,0.458
		c0.328,0.164,0.523,0.426,0.523,0.785s-0.196,0.62-0.589,0.752c-0.392,0.131-0.817,0.196-1.308,0.196
		c-0.622,0-1.178-0.132-1.667-0.359c-0.459-0.263-0.917-0.622-1.309-1.112l-2.519,2.812c0.654,0.688,1.472,1.178,2.453,1.438
		c0.949,0.262,1.93,0.393,2.878,0.393c0.719,0,1.439-0.065,2.191-0.196c0.753-0.131,1.407-0.393,1.995-0.72
		c0.59-0.328,1.08-0.785,1.473-1.374c0.393-0.556,0.556-1.274,0.556-2.158c0-0.851-0.163-1.537-0.523-2.027
		c-0.327-0.523-0.785-0.916-1.309-1.211c-0.522-0.294-1.079-0.523-1.7-0.653c-0.588-0.131-1.177-0.262-1.701-0.394
		c-0.523-0.13-0.949-0.261-1.308-0.425c-0.327-0.163-0.523-0.393-0.523-0.752c0-0.392,0.164-0.688,0.491-0.85
		c0.327-0.164,0.687-0.263,1.014-0.263c1.013,0,1.798,0.393,2.42,1.145L49.45,68.442z"/>
	<path fill="#68C1BE" d="M54.486,70.928c0-0.393,0.163-0.687,0.49-0.85c0.328-0.164,0.688-0.263,1.014-0.263
		c0.49,0,0.949,0.099,1.343,0.295c0.392,0.195,0.751,0.49,1.046,0.85l0,0l0,0l2.551-2.518l0,0l0,0
		c-0.621-0.654-1.406-1.146-2.322-1.373c-0.915-0.262-1.799-0.393-2.682-0.393c-0.72,0-1.407,0.098-2.093,0.261
		c-0.688,0.164-1.309,0.459-1.832,0.817c-0.522,0.36-0.948,0.852-1.275,1.406c-0.327,0.59-0.49,1.276-0.49,2.061
		c0,0.491,0.065,0.916,0.162,1.309c0,0.031,0,0.031,0.033,0.065c0.033,0.131,0.065,0.229,0.131,0.327
		c0.031,0.066,0.065,0.098,0.098,0.163c0.033,0.065,0.065,0.131,0.098,0.197c0.327,0.523,0.786,0.915,1.309,1.178
		c0.523,0.294,1.079,0.489,1.701,0.62c0.589,0.131,1.177,0.262,1.7,0.392c0.522,0.132,0.948,0.263,1.309,0.459l0,0l0,0
		c0.326,0.163,0.523,0.425,0.523,0.785c0,0.359-0.197,0.621-0.589,0.751c-0.392,0.132-0.817,0.197-1.307,0.197
		c-0.622,0-1.179-0.131-1.669-0.36c-0.426-0.229-1.08-0.752-1.472-1.21c0.098,0.949-0.033,2.486-1.243,3.794
		c0.393,0.229,0.851,0.425,1.341,0.556c0.949,0.262,1.931,0.393,2.878,0.393c0.72,0,1.439-0.066,2.19-0.196
		c0.754-0.131,1.407-0.392,1.996-0.721c0.589-0.326,1.079-0.784,1.472-1.373c0.393-0.556,0.557-1.275,0.557-2.158
		c0-0.851-0.164-1.537-0.524-2.028c-0.325-0.523-0.784-0.915-1.307-1.21c-0.524-0.295-1.08-0.523-1.702-0.653
		c-0.587-0.132-1.177-0.263-1.7-0.394c-0.523-0.13-0.948-0.261-1.308-0.425C54.649,71.517,54.486,71.287,54.486,70.928"/>
	<path fill="#68C1BE" d="M78.983,80.51h4.152v-6.704c0-0.458,0.033-0.884,0.099-1.275c0.064-0.393,0.164-0.785,0.359-1.112
		c0.164-0.328,0.425-0.589,0.753-0.785c0.326-0.196,0.751-0.294,1.308-0.294c0.523,0,0.949,0.098,1.242,0.327
		c0.295,0.229,0.49,0.522,0.654,0.85c0.132,0.36,0.229,0.752,0.261,1.146c0.033,0.424,0.033,0.817,0.033,1.209v6.606H92v-7.456
		c0-0.916-0.066-1.733-0.198-2.518c-0.131-0.786-0.359-1.439-0.751-2.029c-0.36-0.588-0.852-1.013-1.505-1.341
		c-0.654-0.326-1.504-0.49-2.552-0.49c-0.49,0-0.948,0.065-1.372,0.196c-0.426,0.131-0.817,0.294-1.146,0.49
		c-0.327,0.196-0.62,0.426-0.851,0.688c-0.228,0.261-0.425,0.523-0.556,0.785h-0.064V66.97h-3.99v13.54H78.983z"/>
	<g>
		<path fill="#68C1BE" d="M81.174,32.433c0.032-0.654-0.065-1.668-0.36-2.224c-0.262-0.556-4.121-4.154-6.541-6.999
			C62.892,9.898,59.098,8.885,57.364,8.101c1.112-2.028,2.42-7.588,2.158-8.079c-0.261-0.458-6.999,6.377-6.999,6.377l-8.601,7.032
			l0,0l0,0l0,0l0,0v11.218h-5.201v10.138H28.453v3.892h5.069v5.069h5.069V53.92h9.191c-1.113-5.723-0.163-9.287,1.111-12.067
			c1.308-2.813,5.069-9.289,7.326-10.368c0.392-0.13,0.589-0.229,0.949-0.36c0.293,0.36,2.583,1.504,5.429,0.981
			c0.883-0.163,2.387,0.785,5.036,1.799c1.308,0.49,3.826,1.864,4.121,2.158c0.327,0.262,0.818,1.472,2.19,1.996
			c1.341,0.523,2.585,0.458,3.207,0.163c0.62-0.294,1.373,0,1.896-0.556C79.604,37.11,81.142,33.087,81.174,32.433"/>
	</g>
	<g>
		<rect x="38.722" y="14.478" fill="#68C1BE" width="3.893" height="3.892"/>
		<rect x="38.722" y="19.547" fill="#68C1BE" width="3.893" height="3.892"/>
		<rect x="33.523" y="19.547" fill="#68C1BE" width="3.892" height="3.892"/>
		<rect x="23.352" y="19.547" fill="#68C1BE" width="3.892" height="3.892"/>
		<rect x="33.523" y="24.649" fill="#68C1BE" width="3.892" height="3.892"/>
		<rect x="33.523" y="29.718" fill="#68C1BE" width="3.892" height="3.892"/>
		<rect x="33.523" y="44.959" fill="#68C1BE" width="3.892" height="3.893"/>
		<rect x="33.523" y="50.028" fill="#68C1BE" width="3.892" height="3.892"/>
		<rect x="33.523" y="55.098" fill="#68C1BE" width="3.892" height="3.893"/>
		<rect x="38.592" y="55.098" fill="#68C1BE" width="3.892" height="3.893"/>
		<rect x="43.661" y="55.098" fill="#68C1BE" width="3.893" height="3.893"/>
		<rect x="28.453" y="24.649" fill="#68C1BE" width="3.892" height="3.892"/>
		<rect x="28.453" y="29.718" fill="#68C1BE" width="3.892" height="3.892"/>
		<rect x="28.453" y="44.959" fill="#68C1BE" width="3.892" height="3.893"/>
		<rect x="23.352" y="34.788" fill="#68C1BE" width="3.892" height="3.892"/>
		<rect x="18.282" y="34.788" fill="#68C1BE" width="3.893" height="3.892"/>
		<rect x="18.282" y="29.718" fill="#68C1BE" width="3.893" height="3.892"/>
		<rect x="13.212" y="29.718" fill="#68C1BE" width="3.892" height="3.892"/>
		<rect x="28.453" y="39.856" fill="#68C1BE" width="3.892" height="3.893"/>
		<rect x="23.352" y="44.959" fill="#68C1BE" width="3.892" height="3.893"/>
		<rect x="18.282" y="44.959" fill="#68C1BE" width="3.893" height="3.893"/>
		<rect x="23.352" y="39.856" fill="#68C1BE" width="3.892" height="3.893"/>
		<rect x="13.212" y="39.856" fill="#68C1BE" width="3.892" height="3.893"/>
		<rect x="28.453" y="50.028" fill="#68C1BE" width="3.892" height="3.892"/>
	</g>
</g>
</svg>
