<?xml version="1.0" encoding="utf-8"?>
<!-- Generator: Adobe Illustrator 22.0.1, SVG Export Plug-In . SVG Version: 6.00 Build 0)  -->
<svg version="1.1" id="Layer_1" xmlns="http://www.w3.org/2000/svg" xmlns:xlink="http://www.w3.org/1999/xlink" x="0px" y="0px"
	 viewBox="0 0 13 13" style="enable-background:new 0 0 13 13;" xml:space="preserve">
<style type="text/css">
	.st0{fill:#014A58;}
</style>
<path class="st0" d="M8.3,0L2,6.1c0,0.1-0.1,0.2-0.1,0.3l-1.9,6c-0.1,0.3,0.1,0.5,0.3,0.6c0.1,0,0.2,0,0.3,0l5.9-2
	c0.1,0,0.1-0.1,0.2-0.1L7,10.6l0,0l0,0l6-5.9L12.3,4L6.9,9.3c-0.2-1-0.6-1.6-1.1-1.9C5.3,7,5,7.1,4.8,7.1C4.7,7,4.7,6.8,4.4,6.6
	C4.2,6.4,3.8,6.3,3.5,6.1L9,0.7L8.3,0z M2.7,7c0.5,0,0.8,0.2,1,0.4C4,7.6,4.1,7.7,4.1,7.7C4.1,7.9,4.4,8,4.6,8c0,0,0.3,0,0.6,0.2
	C5.5,8.4,5.9,8.9,6,10.1l-3.5,1.2l-0.8-0.8L2.7,7z"/>
</svg>
