<?xml version="1.0" encoding="UTF-8" standalone="no"?>
<!DOCTYPE svg PUBLIC "-//W3C//DTD SVG 1.1//EN"
 "http://www.w3.org/Graphics/SVG/1.1/DTD/svg11.dtd">
<!-- Generated by graphviz version 2.38.0 (20140413.2041)
 -->
<!-- Title: models_diagram Pages: 1 -->
<svg width="2793pt" height="783pt"
 viewBox="0.00 0.00 2792.83 783.00" xmlns="http://www.w3.org/2000/svg" xmlns:xlink="http://www.w3.org/1999/xlink">
<g id="graph0" class="graph" transform="scale(1 1) rotate(0) translate(4 779)">
<title>models_diagram</title>
<polygon fill="none" stroke="none" points="-4,4 -4,-779 2788.83,-779 2788.83,4 -4,4"/>
<!-- _diagram_info -->
<g id="node1" class="node"><title>_diagram_info</title>
<text text-anchor="start" x="712.312" y="-760.6" font-family="Times,serif" font-size="13.00">Models diagram</text>
<text text-anchor="start" x="712.312" y="-747.6" font-family="Times,serif" font-size="13.00">Date: Oct 26 2018 &#45; 13:01</text>
<text text-anchor="start" x="712.312" y="-734.6" font-family="Times,serif" font-size="13.00">Migration version: 20180921210346</text>
<text text-anchor="start" x="712.312" y="-721.6" font-family="Times,serif" font-size="13.00">Generated by RailRoady 1.5.2</text>
<text text-anchor="start" x="712.312" y="-708.6" font-family="Times,serif" font-size="13.00">http://railroady.prestonlee.com</text>
</g>
<!-- SetupTopic -->
<g id="node2" class="node"><title>SetupTopic</title>
<ellipse fill="none" stroke="black" cx="230" cy="-431" rx="50.0228" ry="18"/>
<text text-anchor="middle" x="230" y="-426.8" font-family="Times,serif" font-size="14.00">SetupTopic</text>
</g>
<!-- HorseSetup -->
<g id="node20" class="node"><title>HorseSetup</title>
<ellipse fill="none" stroke="black" cx="231" cy="-323" rx="51.2415" ry="18"/>
<text text-anchor="middle" x="231" y="-318.8" font-family="Times,serif" font-size="14.00">HorseSetup</text>
</g>
<!-- SetupTopic&#45;&gt;HorseSetup -->
<g id="edge1" class="edge"><title>SetupTopic&#45;&gt;HorseSetup</title>
<path fill="none" stroke="#0019eb" d="M230.238,-404.795C230.389,-388.735 230.586,-367.927 230.741,-351.45"/>
<ellipse fill="none" stroke="#0019eb" cx="230.198" cy="-408.969" rx="4" ry="4"/>
<polygon fill="#0019eb" stroke="#0019eb" points="230.742,-351.34 235.336,-341.383 230.789,-346.34 230.836,-341.341 230.836,-341.341 230.836,-341.341 230.789,-346.34 226.337,-341.298 230.742,-351.34 230.742,-351.34"/>
</g>
<!-- ObservationTask -->
<g id="node3" class="node"><title>ObservationTask</title>
<ellipse fill="none" stroke="black" cx="1226" cy="-647" rx="69.8078" ry="18"/>
<text text-anchor="middle" x="1226" y="-642.8" font-family="Times,serif" font-size="14.00">ObservationTask</text>
</g>
<!-- Task -->
<g id="node47" class="node"><title>Task</title>
<ellipse fill="none" stroke="black" cx="1354" cy="-539" rx="27" ry="18"/>
<text text-anchor="middle" x="1354" y="-534.8" font-family="Times,serif" font-size="14.00">Task</text>
</g>
<!-- ObservationTask&#45;&gt;Task -->
<g id="edge3" class="edge"><title>ObservationTask&#45;&gt;Task</title>
<path fill="none" stroke="#e64bb1" d="M1251.95,-624.511C1275.3,-605.173 1309.27,-577.045 1331.49,-558.638"/>
<ellipse fill="none" stroke="#e64bb1" cx="1248.8" cy="-627.119" rx="4.00002" ry="4.00002"/>
<ellipse fill="#e64bb1" stroke="#e64bb1" cx="1334.63" cy="-556.04" rx="4.00002" ry="4.00002"/>
</g>
<!-- CustomFieldType -->
<g id="node4" class="node"><title>CustomFieldType</title>
<ellipse fill="none" stroke="black" cx="889" cy="-323" rx="73.2169" ry="18"/>
<text text-anchor="middle" x="889" y="-318.8" font-family="Times,serif" font-size="14.00">CustomFieldType</text>
</g>
<!-- CustomFieldValue -->
<g id="node6" class="node"><title>CustomFieldValue</title>
<ellipse fill="none" stroke="black" cx="922" cy="-431" rx="75.8812" ry="18"/>
<text text-anchor="middle" x="922" y="-426.8" font-family="Times,serif" font-size="14.00">CustomFieldValue</text>
</g>
<!-- CustomFieldType&#45;&gt;CustomFieldValue -->
<g id="edge6" class="edge"><title>CustomFieldType&#45;&gt;CustomFieldValue</title>
<path fill="none" stroke="#f2cf89" d="M903.131,-350.355C909.227,-366.443 915.624,-386.957 919.597,-403.137"/>
<polygon fill="#f2cf89" stroke="#f2cf89" points="903.1,-350.278 903.579,-339.323 901.25,-345.633 899.399,-340.988 899.399,-340.988 899.399,-340.988 901.25,-345.633 895.219,-342.654 903.1,-350.278 903.1,-350.278"/>
<polygon fill="#f2cf89" stroke="#f2cf89" points="919.614,-403.214 917.423,-413.959 920.714,-408.092 921.813,-412.969 921.813,-412.969 921.813,-412.969 920.714,-408.092 926.203,-411.98 919.614,-403.214 919.614,-403.214"/>
</g>
<!-- CustomField -->
<g id="node11" class="node"><title>CustomField</title>
<ellipse fill="none" stroke="black" cx="667" cy="-237" rx="55.6112" ry="18"/>
<text text-anchor="middle" x="667" y="-232.8" font-family="Times,serif" font-size="14.00">CustomField</text>
</g>
<!-- CustomFieldType&#45;&gt;CustomField -->
<g id="edge5" class="edge"><title>CustomFieldType&#45;&gt;CustomField</title>
<path fill="none" stroke="#6660da" d="M843.226,-304.68C804.656,-290.086 749.801,-269.33 711.573,-254.865"/>
<ellipse fill="none" stroke="#6660da" cx="847.096" cy="-306.144" rx="4.00001" ry="4.00001"/>
<polygon fill="#6660da" stroke="#6660da" points="711.099,-254.686 703.339,-246.939 706.423,-252.917 701.747,-251.147 701.747,-251.147 701.747,-251.147 706.423,-252.917 700.154,-255.356 711.099,-254.686 711.099,-254.686"/>
</g>
<!-- HorseOwnership -->
<g id="node5" class="node"><title>HorseOwnership</title>
<ellipse fill="none" stroke="black" cx="1040" cy="-18" rx="70.0668" ry="18"/>
<text text-anchor="middle" x="1040" y="-13.8" font-family="Times,serif" font-size="14.00">HorseOwnership</text>
</g>
<!-- CustomFieldValue&#45;&gt;CustomFieldType -->
<g id="edge9" class="edge"><title>CustomFieldValue&#45;&gt;CustomFieldType</title>
<path fill="none" stroke="#c43d27" d="M908.509,-405.32C902.015,-388.455 895.066,-366.175 891,-349.2"/>
<ellipse fill="none" stroke="#c43d27" cx="910.091" cy="-409.258" rx="4.00001" ry="4.00001"/>
<ellipse fill="#c43d27" stroke="#c43d27" cx="890.119" cy="-345.245" rx="4.00001" ry="4.00001"/>
</g>
<!-- Tag -->
<g id="node7" class="node"><title>Tag</title>
<ellipse fill="none" stroke="black" cx="698" cy="-431" rx="27" ry="18"/>
<text text-anchor="middle" x="698" y="-426.8" font-family="Times,serif" font-size="14.00">Tag</text>
</g>
<!-- HorsesTags -->
<g id="node9" class="node"><title>HorsesTags</title>
<ellipse fill="none" stroke="black" cx="746" cy="-323" rx="51.4832" ry="18"/>
<text text-anchor="middle" x="746" y="-318.8" font-family="Times,serif" font-size="14.00">HorsesTags</text>
</g>
<!-- Tag&#45;&gt;HorsesTags -->
<g id="edge11" class="edge"><title>Tag&#45;&gt;HorsesTags</title>
<path fill="none" stroke="#06d762" d="M693.883,-404.594C692.794,-390.428 693.522,-372.896 700.676,-359 703.62,-353.282 707.97,-348.219 712.827,-343.845"/>
<ellipse fill="none" stroke="#06d762" cx="694.339" cy="-408.939" rx="4" ry="4"/>
<ellipse fill="#06d762" stroke="#06d762" cx="716.081" cy="-341.2" rx="4.00002" ry="4.00002"/>
<text text-anchor="middle" x="733.662" y="-372.8" font-family="Times,serif" font-size="14.00">horses_tags</text>
</g>
<!-- Tag&#45;&gt;CustomField -->
<g id="edge15" class="edge"><title>Tag&#45;&gt;CustomField</title>
<path fill="none" stroke="#29011d" d="M691.646,-403.197C691.059,-400.435 690.499,-397.665 690,-395 681.52,-349.706 674.302,-296.571 670.317,-265.181"/>
<polygon fill="#29011d" stroke="#29011d" points="691.648,-403.206 689.429,-413.945 692.735,-408.086 693.822,-412.967 693.822,-412.967 693.822,-412.967 692.735,-408.086 698.214,-411.988 691.648,-403.206 691.648,-403.206"/>
<polygon fill="#29011d" stroke="#29011d" points="670.289,-264.956 673.511,-254.474 669.667,-259.994 669.046,-255.033 669.046,-255.033 669.046,-255.033 669.667,-259.994 664.581,-255.592 670.289,-264.956 670.289,-264.956"/>
</g>
<!-- Template -->
<g id="node25" class="node"><title>Template</title>
<ellipse fill="none" stroke="black" cx="392" cy="-323" rx="42.7627" ry="18"/>
<text text-anchor="middle" x="392" y="-318.8" font-family="Times,serif" font-size="14.00">Template</text>
</g>
<!-- Tag&#45;&gt;Template -->
<g id="edge14" class="edge"><title>Tag&#45;&gt;Template</title>
<path fill="none" stroke="#f44ab0" d="M663.558,-419.976C640.858,-413.234 610.532,-403.971 584,-395 530.927,-377.056 470.412,-354.289 431.746,-339.443"/>
<polygon fill="#f44ab0" stroke="#f44ab0" points="663.82,-420.053 672.136,-427.202 668.615,-421.47 673.41,-422.886 673.41,-422.886 673.41,-422.886 668.615,-421.47 674.685,-418.57 663.82,-420.053 663.82,-420.053"/>
<polygon fill="#f44ab0" stroke="#f44ab0" points="431.737,-339.439 424.021,-331.647 427.07,-337.643 422.404,-335.847 422.404,-335.847 422.404,-335.847 427.07,-337.643 420.788,-340.046 431.737,-339.439 431.737,-339.439"/>
</g>
<!-- Comment -->
<g id="node38" class="node"><title>Comment</title>
<ellipse fill="none" stroke="black" cx="1595" cy="-323" rx="44.9768" ry="18"/>
<text text-anchor="middle" x="1595" y="-318.8" font-family="Times,serif" font-size="14.00">Comment</text>
</g>
<!-- Tag&#45;&gt;Comment -->
<g id="edge13" class="edge"><title>Tag&#45;&gt;Comment</title>
<path fill="none" stroke="#858953" d="M734.523,-425.484C762.554,-422.031 802.218,-417.169 837,-413 1101.88,-381.252 1418.98,-344.391 1542.31,-330.098"/>
<polygon fill="#858953" stroke="#858953" points="734.309,-425.511 723.833,-422.269 729.346,-426.123 724.384,-426.735 724.384,-426.735 724.384,-426.735 729.346,-426.123 724.935,-431.201 734.309,-425.511 734.309,-425.511"/>
<polygon fill="#858953" stroke="#858953" points="1542.32,-330.097 1552.77,-333.416 1547.28,-329.522 1552.25,-328.946 1552.25,-328.946 1552.25,-328.946 1547.28,-329.522 1551.73,-324.476 1542.32,-330.097 1542.32,-330.097"/>
</g>
<!-- MyList -->
<g id="node40" class="node"><title>MyList</title>
<ellipse fill="none" stroke="black" cx="527" cy="-323" rx="36.2992" ry="18"/>
<text text-anchor="middle" x="527" y="-318.8" font-family="Times,serif" font-size="14.00">MyList</text>
</g>
<!-- Tag&#45;&gt;MyList -->
<g id="edge12" class="edge"><title>Tag&#45;&gt;MyList</title>
<path fill="none" stroke="#1515b2" d="M670.216,-412.777C639.266,-393.592 589.389,-362.674 557.413,-342.853"/>
<polygon fill="#1515b2" stroke="#1515b2" points="670.217,-412.778 676.346,-421.871 674.467,-415.412 678.717,-418.047 678.717,-418.047 678.717,-418.047 674.467,-415.412 681.087,-414.222 670.217,-412.778 670.217,-412.778"/>
<polygon fill="#1515b2" stroke="#1515b2" points="557.399,-342.844 551.271,-333.75 553.149,-340.21 548.9,-337.575 548.9,-337.575 548.9,-337.575 553.149,-340.21 546.529,-341.4 557.399,-342.844 557.399,-342.844"/>
</g>
<!-- UserSession -->
<g id="node8" class="node"><title>UserSession</title>
<polygon fill="none" stroke="black" points="2654.72,-665 2569.28,-665 2569.28,-629 2654.72,-629 2654.72,-665"/>
<text text-anchor="middle" x="2612" y="-642.8" font-family="Times,serif" font-size="14.00">UserSession</text>
</g>
<!-- TaskImage -->
<g id="node10" class="node"><title>TaskImage</title>
<ellipse fill="none" stroke="black" cx="1469" cy="-431" rx="48.5518" ry="18"/>
<text text-anchor="middle" x="1469" y="-426.8" font-family="Times,serif" font-size="14.00">TaskImage</text>
</g>
<!-- CustomField&#45;&gt;CustomFieldValue -->
<g id="edge20" class="edge"><title>CustomField&#45;&gt;CustomFieldValue</title>
<path fill="none" stroke="#ef1067" d="M728.838,-242.684C808.758,-250.171 941.216,-267.937 971,-305 995.083,-334.968 967.793,-378.208 945.331,-405.179"/>
<ellipse fill="none" stroke="#ef1067" cx="724.78" cy="-242.313" rx="4" ry="4"/>
<polygon fill="#ef1067" stroke="#ef1067" points="945.116,-405.428 935.172,-410.051 941.847,-409.211 938.577,-412.994 938.577,-412.994 938.577,-412.994 941.847,-409.211 941.982,-415.936 945.116,-405.428 945.116,-405.428"/>
</g>
<!-- Trainer -->
<g id="node12" class="node"><title>Trainer</title>
<ellipse fill="none" stroke="black" cx="1728" cy="-164" rx="35.6431" ry="18"/>
<text text-anchor="middle" x="1728" y="-159.8" font-family="Times,serif" font-size="14.00">Trainer</text>
</g>
<!-- TokenUser -->
<g id="node13" class="node"><title>TokenUser</title>
<ellipse fill="none" stroke="black" cx="2237" cy="-647" rx="48.5604" ry="18"/>
<text text-anchor="middle" x="2237" y="-642.8" font-family="Times,serif" font-size="14.00">TokenUser</text>
</g>
<!-- UserStableRole -->
<g id="node14" class="node"><title>UserStableRole</title>
<ellipse fill="none" stroke="black" cx="321" cy="-164" rx="65.7235" ry="18"/>
<text text-anchor="middle" x="321" y="-159.8" font-family="Times,serif" font-size="14.00">UserStableRole</text>
</g>
<!-- Horse -->
<g id="node37" class="node"><title>Horse</title>
<ellipse fill="none" stroke="black" cx="441" cy="-91" rx="31.4549" ry="18"/>
<text text-anchor="middle" x="441" y="-86.8" font-family="Times,serif" font-size="14.00">Horse</text>
</g>
<!-- UserStableRole&#45;&gt;Horse -->
<g id="edge25" class="edge"><title>UserStableRole&#45;&gt;Horse</title>
<path fill="none" stroke="#70c476" d="M356.162,-142.196C373.613,-131.87 394.469,-119.531 411.135,-109.67"/>
<polygon fill="#70c476" stroke="#70c476" points="355.941,-142.327 345.043,-143.546 351.638,-144.873 347.335,-147.419 347.335,-147.419 347.335,-147.419 351.638,-144.873 349.626,-151.292 355.941,-142.327 355.941,-142.327"/>
<polygon fill="#70c476" stroke="#70c476" points="411.309,-109.567 422.207,-108.348 415.612,-107.021 419.915,-104.475 419.915,-104.475 419.915,-104.475 415.612,-107.021 417.624,-100.602 411.309,-109.567 411.309,-109.567"/>
</g>
<!-- HorseUserStableRole -->
<g id="node42" class="node"><title>HorseUserStableRole</title>
<ellipse fill="none" stroke="black" cx="89" cy="-18" rx="86.9636" ry="18"/>
<text text-anchor="middle" x="89" y="-13.8" font-family="Times,serif" font-size="14.00">HorseUserStableRole</text>
</g>
<!-- UserStableRole&#45;&gt;HorseUserStableRole -->
<g id="edge24" class="edge"><title>UserStableRole&#45;&gt;HorseUserStableRole</title>
<path fill="none" stroke="#26d377" d="M288.92,-143.088C245.645,-116.228 168.842,-68.5571 124.078,-40.7726"/>
<ellipse fill="none" stroke="#26d377" cx="292.332" cy="-145.206" rx="4.00002" ry="4.00002"/>
<polygon fill="#26d377" stroke="#26d377" points="123.8,-40.6002 117.677,-31.5031 119.552,-37.9634 115.304,-35.3265 115.304,-35.3265 115.304,-35.3265 119.552,-37.9634 112.931,-39.1499 123.8,-40.6002 123.8,-40.6002"/>
</g>
<!-- TrainingTask -->
<g id="node15" class="node"><title>TrainingTask</title>
<ellipse fill="none" stroke="black" cx="1371" cy="-647" rx="56.6492" ry="18"/>
<text text-anchor="middle" x="1371" y="-642.8" font-family="Times,serif" font-size="14.00">TrainingTask</text>
</g>
<!-- TrainingTask&#45;&gt;Task -->
<g id="edge27" class="edge"><title>TrainingTask&#45;&gt;Task</title>
<path fill="none" stroke="#ae7dcb" d="M1366.99,-621.008C1364.3,-604.206 1360.76,-582.135 1358.05,-565.275"/>
<ellipse fill="none" stroke="#ae7dcb" cx="1367.64" cy="-625.02" rx="4.00001" ry="4.00001"/>
<ellipse fill="#ae7dcb" stroke="#ae7dcb" cx="1357.36" cy="-560.938" rx="4.00001" ry="4.00001"/>
</g>
<!-- ExternalEmployee -->
<g id="node16" class="node"><title>ExternalEmployee</title>
<ellipse fill="none" stroke="black" cx="1874" cy="-593" rx="75.8294" ry="18"/>
<text text-anchor="middle" x="1874" y="-588.8" font-family="Times,serif" font-size="14.00">ExternalEmployee</text>
</g>
<!-- User -->
<g id="node45" class="node"><title>User</title>
<ellipse fill="none" stroke="black" cx="1696" cy="-237" rx="27" ry="18"/>
<text text-anchor="middle" x="1696" y="-232.8" font-family="Times,serif" font-size="14.00">User</text>
</g>
<!-- ExternalEmployee&#45;&gt;User -->
<g id="edge29" class="edge"><title>ExternalEmployee&#45;&gt;User</title>
<path fill="none" stroke="#d96afe" d="M1854.14,-568.568C1851.51,-564.839 1849.03,-560.917 1847,-557 1831.78,-527.679 1825,-519.036 1825,-486 1825,-486 1825,-486 1825,-322 1825,-296.917 1816.3,-289.017 1797,-273 1777.96,-257.203 1751.36,-248.368 1730.24,-243.527"/>
<ellipse fill="none" stroke="#d96afe" cx="1856.57" cy="-571.821" rx="4.00002" ry="4.00002"/>
<ellipse fill="#d96afe" stroke="#d96afe" cx="1726.06" cy="-242.637" rx="4.00001" ry="4.00001"/>
</g>
<!-- PushNotification -->
<g id="node17" class="node"><title>PushNotification</title>
<ellipse fill="none" stroke="black" cx="1985" cy="-164" rx="69.6169" ry="18"/>
<text text-anchor="middle" x="1985" y="-159.8" font-family="Times,serif" font-size="14.00">PushNotification</text>
</g>
<!-- StableType -->
<g id="node18" class="node"><title>StableType</title>
<ellipse fill="none" stroke="black" cx="524" cy="-647" rx="49.5296" ry="18"/>
<text text-anchor="middle" x="524" y="-642.8" font-family="Times,serif" font-size="14.00">StableType</text>
</g>
<!-- Stable -->
<g id="node23" class="node"><title>Stable</title>
<ellipse fill="none" stroke="black" cx="429" cy="-539" rx="32.4237" ry="18"/>
<text text-anchor="middle" x="429" y="-534.8" font-family="Times,serif" font-size="14.00">Stable</text>
</g>
<!-- StableType&#45;&gt;Stable -->
<g id="edge32" class="edge"><title>StableType&#45;&gt;Stable</title>
<path fill="none" stroke="#c9f988" d="M503.744,-623.398C487.827,-605.638 465.744,-580.998 449.711,-563.109"/>
<ellipse fill="none" stroke="#c9f988" cx="506.487" cy="-626.459" rx="4.00002" ry="4.00002"/>
<polygon fill="#c9f988" stroke="#c9f988" points="449.488,-562.86 446.165,-552.41 446.151,-559.137 442.814,-555.413 442.814,-555.413 442.814,-555.413 446.151,-559.137 439.463,-558.417 449.488,-562.86 449.488,-562.86"/>
</g>
<!-- OtherTask -->
<g id="node19" class="node"><title>OtherTask</title>
<ellipse fill="none" stroke="black" cx="1493" cy="-647" rx="46.6307" ry="18"/>
<text text-anchor="middle" x="1493" y="-642.8" font-family="Times,serif" font-size="14.00">OtherTask</text>
</g>
<!-- OtherTask&#45;&gt;Task -->
<g id="edge34" class="edge"><title>OtherTask&#45;&gt;Task</title>
<path fill="none" stroke="#9ad350" d="M1466.36,-625.681C1440.72,-606.132 1402.33,-576.853 1377.72,-558.089"/>
<ellipse fill="none" stroke="#9ad350" cx="1469.61" cy="-628.161" rx="4.00002" ry="4.00002"/>
<ellipse fill="#9ad350" stroke="#9ad350" cx="1374.35" cy="-555.518" rx="4.00002" ry="4.00002"/>
</g>
<!-- TagType -->
<g id="node21" class="node"><title>TagType</title>
<ellipse fill="none" stroke="black" cx="698" cy="-593" rx="40.5835" ry="18"/>
<text text-anchor="middle" x="698" y="-588.8" font-family="Times,serif" font-size="14.00">TagType</text>
</g>
<!-- TagType&#45;&gt;Tag -->
<g id="edge37" class="edge"><title>TagType&#45;&gt;Tag</title>
<path fill="none" stroke="#4dd232" d="M698,-566.704C698,-537.565 698,-489.845 698,-459.72"/>
<ellipse fill="none" stroke="#4dd232" cx="698" cy="-570.877" rx="4" ry="4"/>
<polygon fill="#4dd232" stroke="#4dd232" points="698,-459.485 702.5,-449.485 698,-454.485 698,-449.485 698,-449.485 698,-449.485 698,-454.485 693.5,-449.485 698,-459.485 698,-459.485"/>
</g>
<!-- Product -->
<g id="node22" class="node"><title>Product</title>
<ellipse fill="none" stroke="black" cx="2341" cy="-647" rx="37.7352" ry="18"/>
<text text-anchor="middle" x="2341" y="-642.8" font-family="Times,serif" font-size="14.00">Product</text>
</g>
<!-- Stable&#45;&gt;SetupTopic -->
<g id="edge44" class="edge"><title>Stable&#45;&gt;SetupTopic</title>
<path fill="none" stroke="#a4648a" d="M393.269,-527.59C374.529,-521.52 351.481,-513.073 332,-503 305.168,-489.127 277.178,-469.193 257.321,-453.977"/>
<ellipse fill="none" stroke="#a4648a" cx="397.201" cy="-528.836" rx="4.00001" ry="4.00001"/>
<polygon fill="#a4648a" stroke="#a4648a" points="257.235,-453.91 252.097,-444.222 253.286,-450.843 249.337,-447.776 249.337,-447.776 249.337,-447.776 253.286,-450.843 246.576,-451.33 257.235,-453.91 257.235,-453.91"/>
</g>
<!-- Stable&#45;&gt;Tag -->
<g id="edge43" class="edge"><title>Stable&#45;&gt;Tag</title>
<path fill="none" stroke="#e32d01" d="M462.694,-525.597C468.099,-523.883 473.668,-522.276 479,-521 534.016,-507.838 552.83,-524.871 605,-503 632.455,-491.49 658.954,-469.89 676.594,-453.524"/>
<ellipse fill="none" stroke="#e32d01" cx="458.739" cy="-526.904" rx="4.00001" ry="4.00001"/>
<polygon fill="#e32d01" stroke="#e32d01" points="676.805,-453.323 687.15,-449.687 680.426,-449.876 684.047,-446.428 684.047,-446.428 684.047,-446.428 680.426,-449.876 680.944,-443.169 676.805,-453.323 676.805,-453.323"/>
</g>
<!-- Stable&#45;&gt;CustomField -->
<g id="edge46" class="edge"><title>Stable&#45;&gt;CustomField</title>
<path fill="none" stroke="#838600" d="M456.611,-520.147C463.619,-515.019 470.888,-509.14 477,-503 518.772,-461.037 524.493,-445.746 555,-395 586.133,-343.213 575.261,-318.519 615,-273 619.616,-267.712 625.207,-262.868 630.989,-258.578"/>
<ellipse fill="none" stroke="#838600" cx="453.007" cy="-522.696" rx="4.00002" ry="4.00002"/>
<polygon fill="#838600" stroke="#838600" points="631.273,-258.382 642.06,-256.408 635.389,-255.543 639.505,-252.703 639.505,-252.703 639.505,-252.703 635.389,-255.543 636.949,-248.999 631.273,-258.382 631.273,-258.382"/>
</g>
<!-- Stable&#45;&gt;UserStableRole -->
<g id="edge41" class="edge"><title>Stable&#45;&gt;UserStableRole</title>
<path fill="none" stroke="#3dc39e" d="M415.351,-514.407C395.19,-478.342 357.91,-406.752 340,-341 326.043,-289.76 322.271,-227.505 321.294,-192.451"/>
<ellipse fill="none" stroke="#3dc39e" cx="417.415" cy="-518.065" rx="4.00002" ry="4.00002"/>
<polygon fill="#3dc39e" stroke="#3dc39e" points="321.285,-192.071 325.564,-181.974 321.175,-187.072 321.065,-182.074 321.065,-182.074 321.065,-182.074 321.175,-187.072 316.566,-182.173 321.285,-192.071 321.285,-192.071"/>
</g>
<!-- Stable&#45;&gt;Template -->
<g id="edge45" class="edge"><title>Stable&#45;&gt;Template</title>
<path fill="none" stroke="#528d1e" d="M424.668,-512.945C417.672,-472.483 403.942,-393.072 396.711,-351.249"/>
<ellipse fill="none" stroke="#528d1e" cx="425.353" cy="-516.908" rx="4.00001" ry="4.00001"/>
<polygon fill="#528d1e" stroke="#528d1e" points="396.683,-351.086 399.414,-340.466 395.831,-346.159 394.979,-341.232 394.979,-341.232 394.979,-341.232 395.831,-346.159 390.545,-341.999 396.683,-351.086 396.683,-351.086"/>
</g>
<!-- Stable&#45;&gt;Horse -->
<g id="edge42" class="edge"><title>Stable&#45;&gt;Horse</title>
<path fill="none" stroke="#fc1478" d="M441.218,-514.399C450.967,-493.362 463,-461.433 463,-432 463,-432 463,-432 463,-163 463,-147.575 458.204,-131.076 453.09,-117.868"/>
<ellipse fill="none" stroke="#fc1478" cx="439.483" cy="-518.024" rx="4.00002" ry="4.00002"/>
<polygon fill="#fc1478" stroke="#fc1478" points="453.027,-117.717 453.348,-106.756 451.11,-113.099 449.192,-108.482 449.192,-108.482 449.192,-108.482 451.11,-113.099 445.036,-110.208 453.027,-117.717 453.027,-117.717"/>
</g>
<!-- Stable&#45;&gt;User -->
<g id="edge40" class="edge"><title>Stable&#45;&gt;User</title>
<path fill="none" stroke="#5dc96b" d="M464.387,-524.896C469.25,-523.412 474.216,-522.056 479,-521 552.329,-504.815 572.519,-512.572 647,-503 807.47,-482.377 849.564,-486.282 1007,-449 1251.81,-391.026 1302.67,-340.581 1545,-273 1584.24,-262.057 1629.88,-251.817 1660.62,-245.275"/>
<polygon fill="#5dc96b" stroke="#5dc96b" points="464.15,-524.974 453.248,-523.791 459.396,-526.522 454.642,-528.069 454.642,-528.069 454.642,-528.069 459.396,-526.522 456.035,-532.348 464.15,-524.974 464.15,-524.974"/>
<polygon fill="#5dc96b" stroke="#5dc96b" points="1660.66,-245.267 1671.37,-247.606 1665.55,-244.235 1670.45,-243.203 1670.45,-243.203 1670.45,-243.203 1665.55,-244.235 1669.52,-238.799 1660.66,-245.267 1660.66,-245.267"/>
</g>
<!-- Employee -->
<g id="node24" class="node"><title>Employee</title>
<ellipse fill="none" stroke="black" cx="2023" cy="-485" rx="45.92" ry="18"/>
<text text-anchor="middle" x="2023" y="-480.8" font-family="Times,serif" font-size="14.00">Employee</text>
</g>
<!-- Employee&#45;&gt;User -->
<g id="edge48" class="edge"><title>Employee&#45;&gt;User</title>
<path fill="none" stroke="#27ba74" d="M2020.96,-458.857C2016.33,-408.455 2003.23,-297.764 1976,-273 1940.9,-241.076 1798.59,-237.425 1731.42,-237.538"/>
<ellipse fill="none" stroke="#27ba74" cx="2021.33" cy="-462.986" rx="4" ry="4"/>
<ellipse fill="#27ba74" stroke="#27ba74" cx="1727.23" cy="-237.555" rx="4" ry="4"/>
</g>
<!-- Template&#45;&gt;Horse -->
<g id="edge50" class="edge"><title>Template&#45;&gt;Horse</title>
<path fill="none" stroke="#e83314" d="M397.806,-294.746C407.239,-250.472 425.782,-163.432 435.206,-119.195"/>
<polygon fill="#e83314" stroke="#e83314" points="397.767,-294.932 391.282,-303.775 396.725,-299.822 395.683,-304.713 395.683,-304.713 395.683,-304.713 396.725,-299.822 400.084,-305.65 397.767,-294.932 397.767,-294.932"/>
<polygon fill="#e83314" stroke="#e83314" points="435.257,-118.955 441.742,-110.112 436.299,-114.064 437.341,-109.174 437.341,-109.174 437.341,-109.174 436.299,-114.064 432.94,-108.237 435.257,-118.955 435.257,-118.955"/>
</g>
<!-- Admin -->
<g id="node26" class="node"><title>Admin</title>
<ellipse fill="none" stroke="black" cx="2067" cy="-377" rx="34.8458" ry="18"/>
<text text-anchor="middle" x="2067" y="-372.8" font-family="Times,serif" font-size="14.00">Admin</text>
</g>
<!-- Admin&#45;&gt;User -->
<g id="edge52" class="edge"><title>Admin&#45;&gt;User</title>
<path fill="none" stroke="#e60425" d="M2062.81,-350.824C2057.37,-326.694 2045.38,-291.316 2020,-273 1974.56,-240.202 1805.41,-237.206 1731.23,-237.528"/>
<ellipse fill="none" stroke="#e60425" cx="2063.66" cy="-354.927" rx="4.00001" ry="4.00001"/>
<ellipse fill="#e60425" stroke="#e60425" cx="1727.09" cy="-237.554" rx="4" ry="4"/>
</g>
<!-- DeveloperMessage -->
<g id="node27" class="node"><title>DeveloperMessage</title>
<ellipse fill="none" stroke="black" cx="2474" cy="-647" rx="77.7589" ry="18"/>
<text text-anchor="middle" x="2474" y="-642.8" font-family="Times,serif" font-size="14.00">DeveloperMessage</text>
</g>
<!-- RaceTask -->
<g id="node28" class="node"><title>RaceTask</title>
<ellipse fill="none" stroke="black" cx="1602" cy="-647" rx="44.2078" ry="18"/>
<text text-anchor="middle" x="1602" y="-642.8" font-family="Times,serif" font-size="14.00">RaceTask</text>
</g>
<!-- RaceTask&#45;&gt;Task -->
<g id="edge55" class="edge"><title>RaceTask&#45;&gt;Task</title>
<path fill="none" stroke="#168142" d="M1565.38,-629.974C1532.18,-615.488 1481.89,-593.641 1438,-575 1420.13,-567.409 1400.06,-559.041 1384.02,-552.391"/>
<ellipse fill="none" stroke="#168142" cx="1569.35" cy="-631.71" rx="4.00002" ry="4.00002"/>
<ellipse fill="#168142" stroke="#168142" cx="1380.19" cy="-550.806" rx="4.00002" ry="4.00002"/>
</g>
<!-- CommonHorse -->
<g id="node29" class="node"><title>CommonHorse</title>
<ellipse fill="none" stroke="black" cx="320" cy="-647" rx="64.296" ry="18"/>
<text text-anchor="middle" x="320" y="-642.8" font-family="Times,serif" font-size="14.00">CommonHorse</text>
</g>
<!-- CommonHorse&#45;&gt;Stable -->
<g id="edge58" class="edge"><title>CommonHorse&#45;&gt;Stable</title>
<path fill="none" stroke="#6f1c89" d="M336.396,-620.751C346.48,-606.357 360.266,-588.545 375,-575 381.932,-568.627 390.152,-562.657 398.062,-557.515"/>
<polygon fill="#6f1c89" stroke="#6f1c89" points="336.262,-620.947 326.904,-626.665 333.441,-625.076 330.62,-629.204 330.62,-629.204 330.62,-629.204 333.441,-625.076 334.335,-631.743 336.262,-620.947 336.262,-620.947"/>
<polygon fill="#6f1c89" stroke="#6f1c89" points="398.288,-557.374 409.155,-555.903 402.531,-554.729 406.774,-552.084 406.774,-552.084 406.774,-552.084 402.531,-554.729 404.394,-548.266 398.288,-557.374 398.288,-557.374"/>
</g>
<!-- Race -->
<g id="node32" class="node"><title>Race</title>
<ellipse fill="none" stroke="black" cx="516" cy="-539" rx="27.5633" ry="18"/>
<text text-anchor="middle" x="516" y="-534.8" font-family="Times,serif" font-size="14.00">Race</text>
</g>
<!-- CommonHorse&#45;&gt;Race -->
<g id="edge59" class="edge"><title>CommonHorse&#45;&gt;Race</title>
<path fill="none" stroke="#b10482" d="M355.141,-626.995C392.566,-606.755 451.15,-575.072 486.335,-556.043"/>
<ellipse fill="none" stroke="#b10482" cx="351.6" cy="-628.91" rx="4.00002" ry="4.00002"/>
<polygon fill="#b10482" stroke="#b10482" points="486.379,-556.019 497.316,-555.221 490.777,-553.641 495.175,-551.262 495.175,-551.262 495.175,-551.262 490.777,-553.641 493.035,-547.304 486.379,-556.019 486.379,-556.019"/>
</g>
<!-- CommonHorse&#45;&gt;Horse -->
<g id="edge57" class="edge"><title>CommonHorse&#45;&gt;Horse</title>
<path fill="none" stroke="#50ae23" d="M296.92,-623.711C243.135,-570.772 114,-437.474 114,-378 114,-378 114,-378 114,-163 114,-105.222 311.423,-94.3662 399.471,-92.3978"/>
<ellipse fill="none" stroke="#50ae23" cx="299.934" cy="-626.665" rx="4.00002" ry="4.00002"/>
<polygon fill="#50ae23" stroke="#50ae23" points="399.648,-92.3945 409.734,-96.6984 404.647,-92.2969 409.646,-92.1993 409.646,-92.1993 409.646,-92.1993 404.647,-92.2969 409.558,-87.7001 399.648,-92.3945 399.648,-92.3945"/>
</g>
<!-- TaskLog -->
<g id="node30" class="node"><title>TaskLog</title>
<ellipse fill="none" stroke="black" cx="1577" cy="-431" rx="40.8503" ry="18"/>
<text text-anchor="middle" x="1577" y="-426.8" font-family="Times,serif" font-size="14.00">TaskLog</text>
</g>
<!-- Owner -->
<g id="node31" class="node"><title>Owner</title>
<ellipse fill="none" stroke="black" cx="1128" cy="-323" rx="34.344" ry="18"/>
<text text-anchor="middle" x="1128" y="-318.8" font-family="Times,serif" font-size="14.00">Owner</text>
</g>
<!-- Owner&#45;&gt;HorseOwnership -->
<g id="edge63" class="edge"><title>Owner&#45;&gt;HorseOwnership</title>
<path fill="none" stroke="#51dc69" d="M1120.74,-297.013C1104.37,-240.643 1064.68,-103.983 1047.8,-45.8703"/>
<ellipse fill="none" stroke="#51dc69" cx="1121.9" cy="-301" rx="4.00001" ry="4.00001"/>
<polygon fill="#51dc69" stroke="#51dc69" points="1047.72,-45.5738 1049.25,-34.7155 1046.32,-40.7722 1044.93,-35.9706 1044.93,-35.9706 1044.93,-35.9706 1046.32,-40.7722 1040.61,-37.2257 1047.72,-45.5738 1047.72,-45.5738"/>
</g>
<!-- Owner&#45;&gt;User -->
<g id="edge62" class="edge"><title>Owner&#45;&gt;User</title>
<path fill="none" stroke="#84e7f0" d="M1160.76,-307.739C1188.49,-296.328 1229.6,-280.963 1267,-273 1410.57,-242.434 1586.39,-238.168 1660.44,-237.838"/>
<ellipse fill="none" stroke="#84e7f0" cx="1156.99" cy="-309.306" rx="4.00002" ry="4.00002"/>
<ellipse fill="#84e7f0" stroke="#84e7f0" cx="1664.55" cy="-237.827" rx="4" ry="4"/>
</g>
<!-- Feedback -->
<g id="node33" class="node"><title>Feedback</title>
<ellipse fill="none" stroke="black" cx="1974" cy="-647" rx="43.9819" ry="18"/>
<text text-anchor="middle" x="1974" y="-642.8" font-family="Times,serif" font-size="14.00">Feedback</text>
</g>
<!-- Feedback&#45;&gt;User -->
<g id="edge66" class="edge"><title>Feedback&#45;&gt;User</title>
<path fill="none" stroke="#2394d0" d="M1990.54,-620.463C1991.95,-617.371 1993.16,-614.179 1994,-611 2004.28,-572.28 2003.07,-558.509 1989,-521 1985.53,-511.761 1981.67,-511.076 1976,-503 1904.87,-401.712 1919.4,-345.369 1819,-273 1793.67,-254.744 1759.06,-245.984 1733,-241.795"/>
<polygon fill="#2394d0" stroke="#2394d0" points="1990.53,-620.484 1981.88,-627.231 1988.19,-624.907 1985.86,-629.33 1985.86,-629.33 1985.86,-629.33 1988.19,-624.907 1989.84,-631.428 1990.53,-620.484 1990.53,-620.484"/>
<polygon fill="#2394d0" stroke="#2394d0" points="1732.66,-241.746 1723.41,-235.858 1727.71,-241.029 1722.76,-240.311 1722.76,-240.311 1722.76,-240.311 1727.71,-241.029 1722.12,-244.765 1732.66,-241.746 1732.66,-241.746"/>
</g>
<!-- ReadFeedback -->
<g id="node46" class="node"><title>ReadFeedback</title>
<ellipse fill="none" stroke="black" cx="1918" cy="-539" rx="62.3234" ry="18"/>
<text text-anchor="middle" x="1918" y="-534.8" font-family="Times,serif" font-size="14.00">ReadFeedback</text>
</g>
<!-- Feedback&#45;&gt;ReadFeedback -->
<g id="edge67" class="edge"><title>Feedback&#45;&gt;ReadFeedback</title>
<path fill="none" stroke="#5ed52b" d="M1980.78,-621.055C1983.25,-606.699 1983.8,-588.824 1976,-575 1972.58,-568.945 1967.65,-563.819 1962.08,-559.518"/>
<ellipse fill="none" stroke="#5ed52b" cx="1979.95" cy="-625.124" rx="4.00001" ry="4.00001"/>
<polygon fill="#5ed52b" stroke="#5ed52b" points="1961.87,-559.377 1956.09,-550.059 1957.73,-556.584 1953.58,-553.792 1953.58,-553.792 1953.58,-553.792 1957.73,-556.584 1951.06,-557.525 1961.87,-559.377 1961.87,-559.377"/>
</g>
<!-- TodoTask -->
<g id="node34" class="node"><title>TodoTask</title>
<ellipse fill="none" stroke="black" cx="1055" cy="-647" rx="44.9599" ry="18"/>
<text text-anchor="middle" x="1055" y="-642.8" font-family="Times,serif" font-size="14.00">TodoTask</text>
</g>
<!-- TodoTask&#45;&gt;Task -->
<g id="edge69" class="edge"><title>TodoTask&#45;&gt;Task</title>
<path fill="none" stroke="#50044e" d="M1068.39,-622.106C1078.71,-606.07 1094.48,-585.946 1114,-575 1148.39,-555.712 1260.92,-545.913 1318.85,-542.042"/>
<ellipse fill="none" stroke="#50044e" cx="1066.15" cy="-625.736" rx="4.00002" ry="4.00002"/>
<ellipse fill="#50044e" stroke="#50044e" cx="1322.99" cy="-541.773" rx="4" ry="4"/>
</g>
<!-- PushToken -->
<g id="node35" class="node"><title>PushToken</title>
<ellipse fill="none" stroke="black" cx="1408" cy="-164" rx="49.0708" ry="18"/>
<text text-anchor="middle" x="1408" y="-159.8" font-family="Times,serif" font-size="14.00">PushToken</text>
</g>
<!-- Ability -->
<g id="node36" class="node"><title>Ability</title>
<polygon fill="none" stroke="black" points="2784.67,-756.5 2729.33,-756.5 2729.33,-720.5 2784.67,-720.5 2784.67,-756.5"/>
<text text-anchor="middle" x="2757" y="-734.3" font-family="Times,serif" font-size="14.00">Ability</text>
</g>
<!-- Horse&#45;&gt;HorseOwnership -->
<g id="edge72" class="edge"><title>Horse&#45;&gt;HorseOwnership</title>
<path fill="none" stroke="#004695" d="M479.646,-85.4192C578.163,-73.742 839.914,-42.7163 967.734,-27.5658"/>
<ellipse fill="none" stroke="#004695" cx="475.5" cy="-85.9106" rx="4.00001" ry="4.00001"/>
<polygon fill="#004695" stroke="#004695" points="967.887,-27.5477 978.347,-30.8393 972.852,-26.9591 977.818,-26.3705 977.818,-26.3705 977.818,-26.3705 972.852,-26.9591 977.288,-21.9018 967.887,-27.5477 967.887,-27.5477"/>
</g>
<!-- Horse&#45;&gt;HorseUserStableRole -->
<g id="edge75" class="edge"><title>Horse&#45;&gt;HorseUserStableRole</title>
<path fill="none" stroke="#bc2897" d="M403.725,-82.4815C345.644,-70.7663 232.589,-47.9626 158.978,-33.1148"/>
<ellipse fill="none" stroke="#bc2897" cx="407.974" cy="-83.3384" rx="4.00001" ry="4.00001"/>
<polygon fill="#bc2897" stroke="#bc2897" points="158.665,-33.0518 149.752,-26.6633 153.764,-32.0631 148.862,-31.0745 148.862,-31.0745 148.862,-31.0745 153.764,-32.0631 147.973,-35.4857 158.665,-33.0518 158.665,-33.0518"/>
</g>
<!-- HorseFlag -->
<g id="node43" class="node"><title>HorseFlag</title>
<ellipse fill="none" stroke="black" cx="1664" cy="-18" rx="46.8977" ry="18"/>
<text text-anchor="middle" x="1664" y="-13.8" font-family="Times,serif" font-size="14.00">HorseFlag</text>
</g>
<!-- Horse&#45;&gt;HorseFlag -->
<g id="edge74" class="edge"><title>Horse&#45;&gt;HorseFlag</title>
<path fill="none" stroke="#dd2063" d="M480.382,-87.7137C659.475,-77.3166 1397.38,-34.4784 1607.77,-22.2643"/>
<ellipse fill="none" stroke="#dd2063" cx="476.145" cy="-87.9597" rx="4" ry="4"/>
<polygon fill="#dd2063" stroke="#dd2063" points="1607.99,-22.2518 1618.23,-26.1646 1612.98,-21.962 1617.97,-21.6722 1617.97,-21.6722 1617.97,-21.6722 1612.98,-21.962 1617.71,-17.1797 1607.99,-22.2518 1607.99,-22.2518"/>
</g>
<!-- Horse&#45;&gt;Task -->
<g id="edge73" class="edge"><title>Horse&#45;&gt;Task</title>
<path fill="none" stroke="#330071" d="M480.393,-92.6156C611.969,-95.1872 1028,-107.691 1028,-163 1028,-281 1028,-281 1028,-281 1028,-428.189 1235.48,-504.097 1319.4,-528.779"/>
<ellipse fill="none" stroke="#330071" cx="476.145" cy="-92.5356" rx="4" ry="4"/>
<polygon fill="#330071" stroke="#330071" points="1319.62,-528.842 1327.99,-535.927 1324.42,-530.222 1329.23,-531.601 1329.23,-531.601 1329.23,-531.601 1324.42,-530.222 1330.47,-527.276 1319.62,-528.842 1319.62,-528.842"/>
</g>
<!-- Comment&#45;&gt;User -->
<g id="edge77" class="edge"><title>Comment&#45;&gt;User</title>
<path fill="none" stroke="#0df136" d="M1589.99,-294.926C1589.95,-287.233 1591.38,-279.255 1595.91,-273 1610.26,-253.174 1636.7,-244.501 1658.8,-240.744"/>
<polygon fill="#0df136" stroke="#0df136" points="1590,-295.084 1586.31,-305.411 1590.4,-300.068 1590.8,-305.052 1590.8,-305.052 1590.8,-305.052 1590.4,-300.068 1595.28,-304.693 1590,-295.084 1590,-295.084"/>
<polygon fill="#0df136" stroke="#0df136" points="1659.01,-240.714 1669.54,-243.759 1663.96,-240.009 1668.91,-239.304 1668.91,-239.304 1668.91,-239.304 1663.96,-240.009 1668.27,-234.849 1659.01,-240.714 1659.01,-240.714"/>
<text text-anchor="middle" x="1632.54" y="-275.8" font-family="Times,serif" font-size="14.00">tagged_users</text>
</g>
<!-- ImportTrainer -->
<g id="node39" class="node"><title>ImportTrainer</title>
<ellipse fill="none" stroke="black" cx="1708" cy="-593" rx="59.7806" ry="18"/>
<text text-anchor="middle" x="1708" y="-588.8" font-family="Times,serif" font-size="14.00">ImportTrainer</text>
</g>
<!-- ImportTrainer&#45;&gt;User -->
<g id="edge79" class="edge"><title>ImportTrainer&#45;&gt;User</title>
<path fill="none" stroke="#f704c8" d="M1708,-566.475C1708,-545.005 1708,-513.496 1708,-486 1708,-486 1708,-486 1708,-322 1708,-302.786 1704.89,-281.346 1701.83,-264.936"/>
<ellipse fill="none" stroke="#f704c8" cx="1708" cy="-570.742" rx="4" ry="4"/>
<polygon fill="#f704c8" stroke="#f704c8" points="1701.8,-264.764 1704.28,-254.082 1700.83,-259.858 1699.86,-254.952 1699.86,-254.952 1699.86,-254.952 1700.83,-259.858 1695.45,-255.822 1701.8,-264.764 1701.8,-264.764"/>
</g>
<!-- MyList&#45;&gt;Horse -->
<g id="edge81" class="edge"><title>MyList&#45;&gt;Horse</title>
<path fill="none" stroke="#b7a619" d="M524.709,-294.783C520.397,-255.403 508.476,-181.312 477,-127 474.159,-122.098 470.44,-117.429 466.471,-113.19"/>
<polygon fill="#b7a619" stroke="#b7a619" points="524.728,-294.975 521.256,-305.376 525.231,-299.95 525.733,-304.924 525.733,-304.924 525.733,-304.924 525.231,-299.95 530.21,-304.472 524.728,-294.975 524.728,-294.975"/>
<polygon fill="#b7a619" stroke="#b7a619" points="466.342,-113.063 462.343,-102.853 462.769,-109.566 459.196,-106.069 459.196,-106.069 459.196,-106.069 462.769,-109.566 456.048,-109.285 466.342,-113.063 466.342,-113.063"/>
</g>
<!-- ApplicationRecord -->
<g id="node41" class="node"><title>ApplicationRecord</title>
<ellipse fill="none" stroke="black" cx="1007" cy="-738.5" rx="77.2916" ry="18"/>
<text text-anchor="middle" x="1007" y="-734.3" font-family="Times,serif" font-size="14.00">ApplicationRecord</text>
</g>
<!-- ApplicationRecord&#45;&gt;SetupTopic -->
<g id="edge2" class="edge"><title>ApplicationRecord&#45;&gt;SetupTopic</title>
<path fill="none" stroke="black" d="M976.828,-721.845C960.718,-714.319 940.282,-706.066 921,-702 880.49,-693.458 204.919,-713.626 176,-684 108.426,-614.773 147.929,-552.599 193,-467 196.872,-459.645 202.89,-452.973 208.954,-447.473"/>
</g>
<!-- ApplicationRecord&#45;&gt;ObservationTask -->
<g id="edge4" class="edge"><title>ApplicationRecord&#45;&gt;ObservationTask</title>
<path fill="none" stroke="black" d="M1044.94,-722.788C1072.05,-712.194 1109.37,-697.455 1142,-684 1158.57,-677.165 1176.88,-669.35 1192.17,-662.752"/>
</g>
<!-- ApplicationRecord&#45;&gt;CustomFieldType -->
<g id="edge7" class="edge"><title>ApplicationRecord&#45;&gt;CustomFieldType</title>
<path fill="none" stroke="black" d="M974.532,-722.097C958.683,-715.099 939.159,-707.234 921,-702 898.252,-695.443 831.26,-702.099 816,-684 727.824,-579.421 838.662,-397.352 876.915,-341.07"/>
</g>
<!-- ApplicationRecord&#45;&gt;HorseOwnership -->
<g id="edge8" class="edge"><title>ApplicationRecord&#45;&gt;HorseOwnership</title>
<path fill="none" stroke="black" d="M990.227,-720.494C981.284,-710.576 970.762,-697.406 964,-684 952.946,-662.085 956.756,-653.442 959,-629 961.232,-604.694 963.245,-598.72 969,-575 982.791,-518.158 993.341,-505.874 1007,-449 1027.46,-363.808 1029.42,-341.707 1042,-255 1054.84,-166.501 1059.1,-144.291 1064,-55 1064.39,-47.9497 1061.25,-41.2232 1057.13,-35.5333"/>
</g>
<!-- ApplicationRecord&#45;&gt;CustomFieldValue -->
<g id="edge10" class="edge"><title>ApplicationRecord&#45;&gt;CustomFieldValue</title>
<path fill="none" stroke="black" d="M969.873,-722.575C938.044,-709.406 896.603,-691.218 892,-684 843.437,-607.846 891.888,-492.062 913.12,-448.952"/>
</g>
<!-- ApplicationRecord&#45;&gt;Tag -->
<g id="edge16" class="edge"><title>ApplicationRecord&#45;&gt;Tag</title>
<path fill="none" stroke="black" d="M975.036,-721.919C959.139,-714.792 939.428,-706.87 921,-702 890.034,-693.817 802.489,-704.643 778,-684 758.731,-667.757 720.354,-490.777 712,-467 709.874,-460.949 707.324,-454.402 704.986,-448.625"/>
</g>
<!-- ApplicationRecord&#45;&gt;HorsesTags -->
<g id="edge18" class="edge"><title>ApplicationRecord&#45;&gt;HorsesTags</title>
<path fill="none" stroke="black" d="M969.813,-722.638C940.326,-710.513 901.852,-693.836 888,-684 878.516,-677.265 876.01,-674.959 870,-665 795.78,-542.021 825.014,-489.957 766,-359 763.24,-352.875 759.737,-346.421 756.437,-340.748"/>
</g>
<!-- ApplicationRecord&#45;&gt;TaskImage -->
<g id="edge19" class="edge"><title>ApplicationRecord&#45;&gt;TaskImage</title>
<path fill="none" stroke="black" d="M1082.57,-734.601C1245.32,-727.58 1617.39,-707.058 1655,-665 1665.67,-653.074 1664.58,-641.815 1655,-629 1638.08,-606.36 1616.94,-627.517 1594,-611 1533.25,-567.256 1491.84,-484.469 1476.08,-448.917"/>
</g>
<!-- ApplicationRecord&#45;&gt;CustomField -->
<g id="edge21" class="edge"><title>ApplicationRecord&#45;&gt;CustomField</title>
<path fill="none" stroke="black" d="M975.497,-721.875C959.545,-714.646 939.651,-706.648 921,-702 800.167,-671.887 699.026,-727.859 656,-611 608.322,-481.506 647.598,-309.279 662.138,-255.075"/>
</g>
<!-- ApplicationRecord&#45;&gt;TokenUser -->
<g id="edge23" class="edge"><title>ApplicationRecord&#45;&gt;TokenUser</title>
<path fill="none" stroke="black" d="M1083.79,-736.069C1326.93,-731.25 2069.98,-714.192 2174,-684 2189,-679.646 2204.25,-671.064 2215.99,-663.371"/>
</g>
<!-- ApplicationRecord&#45;&gt;UserStableRole -->
<g id="edge26" class="edge"><title>ApplicationRecord&#45;&gt;UserStableRole</title>
<path fill="none" stroke="black" d="M976.828,-721.842C960.718,-714.316 940.283,-706.063 921,-702 756.78,-667.399 331.471,-712.011 166,-684 123.523,-676.809 76,-691.081 76,-648 76,-648 76,-648 76,-484 76,-340.847 233.106,-222.403 295.703,-180.893"/>
</g>
<!-- ApplicationRecord&#45;&gt;TrainingTask -->
<g id="edge28" class="edge"><title>ApplicationRecord&#45;&gt;TrainingTask</title>
<path fill="none" stroke="black" d="M1059,-725.073C1118.51,-710.799 1218.87,-686.568 1305,-665 1312.58,-663.103 1320.63,-661.054 1328.42,-659.058"/>
</g>
<!-- ApplicationRecord&#45;&gt;ExternalEmployee -->
<g id="edge30" class="edge"><title>ApplicationRecord&#45;&gt;ExternalEmployee</title>
<path fill="none" stroke="black" d="M1084.47,-737.244C1279.61,-735.942 1780.14,-728.274 1840,-684 1863.1,-666.916 1870.51,-632.161 1872.88,-611.193"/>
</g>
<!-- ApplicationRecord&#45;&gt;PushNotification -->
<g id="edge31" class="edge"><title>ApplicationRecord&#45;&gt;PushNotification</title>
<path fill="none" stroke="black" d="M1083.77,-735.624C1288.73,-730.273 1845.5,-713.394 2027,-684 2071.57,-676.782 2122,-693.152 2122,-648 2122,-648 2122,-648 2122,-236 2122,-199.165 2082.48,-181.416 2045.89,-172.877"/>
</g>
<!-- ApplicationRecord&#45;&gt;StableType -->
<g id="edge33" class="edge"><title>ApplicationRecord&#45;&gt;StableType</title>
<path fill="none" stroke="black" d="M976.379,-721.897C960.317,-714.484 940.062,-706.318 921,-702 776.446,-669.258 730.312,-725.415 588,-684 572.822,-679.583 557.332,-670.999 545.393,-663.32"/>
</g>
<!-- ApplicationRecord&#45;&gt;OtherTask -->
<g id="edge35" class="edge"><title>ApplicationRecord&#45;&gt;OtherTask</title>
<path fill="none" stroke="black" d="M1073.09,-729.03C1157.95,-717.544 1309.5,-694.971 1437,-665 1444.02,-663.349 1451.46,-661.306 1458.54,-659.216"/>
</g>
<!-- ApplicationRecord&#45;&gt;HorseSetup -->
<g id="edge36" class="edge"><title>ApplicationRecord&#45;&gt;HorseSetup</title>
<path fill="none" stroke="black" d="M976.828,-721.844C960.718,-714.318 940.282,-706.065 921,-702 758.088,-667.659 332.317,-728.925 172,-684 56.0223,-651.5 122.954,-523.447 171,-413 182.894,-385.659 203.358,-357.729 217.033,-340.626"/>
</g>
<!-- ApplicationRecord&#45;&gt;TagType -->
<g id="edge38" class="edge"><title>ApplicationRecord&#45;&gt;TagType</title>
<path fill="none" stroke="black" d="M975.493,-721.892C959.54,-714.667 939.646,-706.668 921,-702 881.789,-692.184 772.976,-707.375 740,-684 715.805,-666.849 705.162,-632.117 700.783,-611.171"/>
</g>
<!-- ApplicationRecord&#45;&gt;Product -->
<g id="edge39" class="edge"><title>ApplicationRecord&#45;&gt;Product</title>
<path fill="none" stroke="black" d="M1084.37,-737.527C1273.55,-736.826 1774.33,-730.343 2189,-684 2236.57,-678.684 2248.82,-677.567 2295,-665 2300.92,-663.39 2307.14,-661.342 2313.04,-659.228"/>
</g>
<!-- ApplicationRecord&#45;&gt;Stable -->
<g id="edge47" class="edge"><title>ApplicationRecord&#45;&gt;Stable</title>
<path fill="none" stroke="black" d="M976.387,-721.861C960.327,-714.438 940.072,-706.274 921,-702 847.813,-685.6 298.386,-719.632 247,-665 194.212,-608.878 336.515,-563.826 400.098,-547.059"/>
</g>
<!-- ApplicationRecord&#45;&gt;Employee -->
<g id="edge49" class="edge"><title>ApplicationRecord&#45;&gt;Employee</title>
<path fill="none" stroke="black" d="M1084.43,-738.17C1311.94,-739.304 1966.19,-736.291 2027,-665 2066.64,-618.529 2043.07,-537.935 2029.97,-502.983"/>
</g>
<!-- ApplicationRecord&#45;&gt;Template -->
<g id="edge51" class="edge"><title>ApplicationRecord&#45;&gt;Template</title>
<path fill="none" stroke="black" d="M976.82,-721.881C960.708,-714.365 940.273,-706.11 921,-702 846.02,-686.011 277.582,-726.643 232,-665 189.62,-607.687 335.444,-400.706 379.669,-340.521"/>
</g>
<!-- ApplicationRecord&#45;&gt;Admin -->
<g id="edge53" class="edge"><title>ApplicationRecord&#45;&gt;Admin</title>
<path fill="none" stroke="black" d="M1084.31,-737.244C1287.91,-735.955 1835.16,-728.34 2010,-684 2045.45,-675.009 2084,-684.574 2084,-648 2084,-648 2084,-648 2084,-484 2084,-452.315 2076.5,-415.968 2071.47,-395.123"/>
</g>
<!-- ApplicationRecord&#45;&gt;DeveloperMessage -->
<g id="edge54" class="edge"><title>ApplicationRecord&#45;&gt;DeveloperMessage</title>
<path fill="none" stroke="black" d="M1083.67,-735.697C1274.12,-730.869 1783.94,-715.797 2208,-684 2288.22,-677.985 2308.46,-677.034 2388,-665 2397.93,-663.497 2408.46,-661.639 2418.61,-659.71"/>
</g>
<!-- ApplicationRecord&#45;&gt;RaceTask -->
<g id="edge56" class="edge"><title>ApplicationRecord&#45;&gt;RaceTask</title>
<path fill="none" stroke="black" d="M1079.18,-731.947C1183.73,-722.98 1382.99,-702.416 1549,-665 1555.69,-663.492 1562.75,-661.512 1569.45,-659.439"/>
</g>
<!-- ApplicationRecord&#45;&gt;CommonHorse -->
<g id="edge60" class="edge"><title>ApplicationRecord&#45;&gt;CommonHorse</title>
<path fill="none" stroke="black" d="M976.384,-721.875C960.323,-714.457 940.068,-706.291 921,-702 768.606,-667.704 725.717,-696.341 570,-684 491.129,-677.749 471.006,-678.219 393,-665 384.276,-663.522 375.036,-661.629 366.169,-659.647"/>
</g>
<!-- ApplicationRecord&#45;&gt;TaskLog -->
<g id="edge61" class="edge"><title>ApplicationRecord&#45;&gt;TaskLog</title>
<path fill="none" stroke="black" d="M1083.45,-735.605C1251.56,-730.552 1641.01,-713.654 1673,-665 1681.79,-651.63 1681.25,-642.707 1673,-629 1664.18,-614.352 1650.13,-623.981 1639,-611 1597.16,-562.185 1583.06,-483.535 1578.74,-449.088"/>
</g>
<!-- ApplicationRecord&#45;&gt;Owner -->
<g id="edge64" class="edge"><title>ApplicationRecord&#45;&gt;Owner</title>
<path fill="none" stroke="black" d="M990.514,-720.776C982.004,-710.946 972.486,-697.77 968,-684 960.428,-660.758 962.152,-652.735 968,-629 997.61,-508.818 1083.95,-383.577 1115.91,-340.036"/>
</g>
<!-- ApplicationRecord&#45;&gt;Race -->
<g id="edge65" class="edge"><title>ApplicationRecord&#45;&gt;Race</title>
<path fill="none" stroke="black" d="M976.366,-721.953C960.301,-714.554 940.047,-706.384 921,-702 856.996,-687.269 683.959,-714.892 626,-684 624.234,-683.059 555.767,-592.62 527.759,-555.566"/>
</g>
<!-- ApplicationRecord&#45;&gt;Feedback -->
<g id="edge68" class="edge"><title>ApplicationRecord&#45;&gt;Feedback</title>
<path fill="none" stroke="black" d="M1084.55,-737.809C1275.14,-737.79 1762.11,-732.81 1916,-684 1930.01,-679.557 1944.05,-670.972 1954.81,-663.3"/>
</g>
<!-- ApplicationRecord&#45;&gt;TodoTask -->
<g id="edge70" class="edge"><title>ApplicationRecord&#45;&gt;TodoTask</title>
<path fill="none" stroke="black" d="M1016.25,-720.243C1024.81,-704.293 1037.44,-680.735 1045.94,-664.9"/>
</g>
<!-- ApplicationRecord&#45;&gt;PushToken -->
<g id="edge71" class="edge"><title>ApplicationRecord&#45;&gt;PushToken</title>
<path fill="none" stroke="black" d="M1001.89,-720.312C996.284,-698.356 989.502,-659.545 1001,-629 1082.16,-413.389 1314.07,-232.66 1386.27,-180.301"/>
</g>
<!-- ApplicationRecord&#45;&gt;Horse -->
<g id="edge76" class="edge"><title>ApplicationRecord&#45;&gt;Horse</title>
<path fill="none" stroke="black" d="M976.829,-721.84C960.719,-714.313 940.283,-706.06 921,-702 754.819,-667.01 325.568,-704.623 157,-684 102.153,-677.29 38,-703.256 38,-648 38,-648 38,-648 38,-163 38,-125.259 315.679,-101.253 410.046,-94.1842"/>
</g>
<!-- ApplicationRecord&#45;&gt;Comment -->
<g id="edge78" class="edge"><title>ApplicationRecord&#45;&gt;Comment</title>
<path fill="none" stroke="black" d="M1083.45,-735.605C1251.56,-730.552 1641.01,-713.654 1673,-665 1681.79,-651.63 1680.43,-643.172 1673,-629 1666.48,-616.551 1654.14,-623.105 1647,-611 1602.06,-534.819 1646.55,-499.259 1627,-413 1621.16,-387.218 1610.01,-358.664 1602.54,-341.021"/>
</g>
<!-- ApplicationRecord&#45;&gt;ImportTrainer -->
<g id="edge80" class="edge"><title>ApplicationRecord&#45;&gt;ImportTrainer</title>
<path fill="none" stroke="black" d="M1084.36,-737.86C1268.02,-737.908 1718.36,-732.978 1764,-684 1780.66,-666.116 1775.85,-650.38 1764,-629 1759.05,-620.075 1750.78,-613.126 1742.09,-607.857"/>
</g>
<!-- ApplicationRecord&#45;&gt;MyList -->
<g id="edge82" class="edge"><title>ApplicationRecord&#45;&gt;MyList</title>
<path fill="none" stroke="black" d="M975.95,-721.841C959.945,-714.51 939.87,-706.432 921,-702 865.266,-688.909 710.989,-716.707 664,-684 603.763,-642.071 546.104,-407.382 530.887,-341.311"/>
</g>
<!-- ApplicationRecord&#45;&gt;HorseUserStableRole -->
<g id="edge83" class="edge"><title>ApplicationRecord&#45;&gt;HorseUserStableRole</title>
<path fill="none" stroke="black" d="M976.833,-721.82C960.724,-714.287 940.289,-706.035 921,-702 827.666,-682.474 154.898,-709.44 63,-684 31.9198,-675.396 0,-680.249 0,-648 0,-648 0,-648 0,-90 0,-63.5139 24.3848,-45.3024 47.6266,-33.9598"/>
</g>
<!-- ApplicationRecord&#45;&gt;HorseFlag -->
<g id="edge84" class="edge"><title>ApplicationRecord&#45;&gt;HorseFlag</title>
<path fill="none" stroke="black" d="M1084.44,-737.576C1257.33,-736.856 1687.55,-730.126 2044,-684 2097.53,-677.072 2160,-701.981 2160,-648 2160,-648 2160,-648 2160,-90 2160,-44.8745 1834.13,-26.2557 1710.66,-20.8205"/>
</g>
<!-- Plan -->
<g id="node44" class="node"><title>Plan</title>
<ellipse fill="none" stroke="black" cx="429" cy="-647" rx="27" ry="18"/>
<text text-anchor="middle" x="429" y="-642.8" font-family="Times,serif" font-size="14.00">Plan</text>
</g>
<!-- ApplicationRecord&#45;&gt;Plan -->
<g id="edge86" class="edge"><title>ApplicationRecord&#45;&gt;Plan</title>
<path fill="none" stroke="black" d="M976.38,-721.891C960.319,-714.476 940.064,-706.31 921,-702 774.268,-668.827 732.584,-699.98 583,-684 530.181,-678.357 515.741,-680.719 465,-665 459.85,-663.405 454.497,-661.203 449.541,-658.913"/>
</g>
<!-- ApplicationRecord&#45;&gt;User -->
<g id="edge93" class="edge"><title>ApplicationRecord&#45;&gt;User</title>
<path fill="none" stroke="black" d="M1084.44,-737.171C1269.58,-735.68 1726.34,-727.578 1779,-684 1799.88,-666.724 1783,-555.015 1783,-540 1783,-540 1783,-540 1783,-322 1783,-285.888 1743.73,-260.382 1717.95,-247.533"/>
</g>
<!-- ApplicationRecord&#45;&gt;ReadFeedback -->
<g id="edge94" class="edge"><title>ApplicationRecord&#45;&gt;ReadFeedback</title>
<path fill="none" stroke="black" d="M1083.2,-735.285C1277.87,-729.26 1783.15,-711.182 1854,-684 1866.7,-679.127 1867.45,-673.59 1878,-665 1897.33,-649.263 1900.7,-643.456 1921,-629 1933.67,-619.982 1943.34,-624.531 1951,-611 1958.88,-597.077 1956.9,-589.87 1951,-575 1948.23,-568.014 1943.32,-561.615 1938.13,-556.252"/>
</g>
<!-- ApplicationRecord&#45;&gt;Task -->
<g id="edge100" class="edge"><title>ApplicationRecord&#45;&gt;Task</title>
<path fill="none" stroke="black" d="M1031.61,-721.431C1052.73,-707.315 1083.66,-685.835 1109,-665 1126.97,-650.224 1127.66,-641.925 1147,-629 1195.96,-596.281 1213.83,-598.103 1268,-575 1289.35,-565.894 1313.89,-555.958 1331.28,-549.007"/>
</g>
<!-- Plan&#45;&gt;Stable -->
<g id="edge85" class="edge"><title>Plan&#45;&gt;Stable</title>
<path fill="none" stroke="#0ed1bc" d="M429,-620.795C429,-604.735 429,-583.927 429,-567.45"/>
<ellipse fill="none" stroke="#0ed1bc" cx="429" cy="-624.969" rx="4" ry="4"/>
<polygon fill="#0ed1bc" stroke="#0ed1bc" points="429,-567.341 433.5,-557.341 429,-562.341 429,-557.341 429,-557.341 429,-557.341 429,-562.341 424.5,-557.341 429,-567.341 429,-567.341"/>
</g>
<!-- User&#45;&gt;Trainer -->
<g id="edge22" class="edge"><title>User&#45;&gt;Trainer</title>
<path fill="none" stroke="black" d="M1703.42,-219.533C1708.52,-208.226 1715.26,-193.263 1720.4,-181.871"/>
</g>
<!-- User&#45;&gt;UserStableRole -->
<g id="edge87" class="edge"><title>User&#45;&gt;UserStableRole</title>
<path fill="none" stroke="#83aa9a" d="M1660.92,-234.188C1479.82,-224.837 649.417,-181.958 395.183,-168.831"/>
<ellipse fill="none" stroke="#83aa9a" cx="1665.16" cy="-234.407" rx="4" ry="4"/>
<polygon fill="#83aa9a" stroke="#83aa9a" points="394.933,-168.818 385.179,-163.808 389.94,-168.56 384.947,-168.302 384.947,-168.302 384.947,-168.302 389.94,-168.56 384.714,-172.796 394.933,-168.818 394.933,-168.818"/>
</g>
<!-- User&#45;&gt;PushNotification -->
<g id="edge92" class="edge"><title>User&#45;&gt;PushNotification</title>
<path fill="none" stroke="#9199cc" d="M1728.92,-227.914C1776.89,-216.127 1866.77,-194.046 1926.26,-179.43"/>
<ellipse fill="none" stroke="#9199cc" cx="1724.77" cy="-228.931" rx="4.00001" ry="4.00001"/>
<polygon fill="#9199cc" stroke="#9199cc" points="1926.56,-179.358 1937.34,-181.342 1931.41,-178.165 1936.27,-176.972 1936.27,-176.972 1936.27,-176.972 1931.41,-178.165 1935.19,-172.602 1926.56,-179.358 1926.56,-179.358"/>
</g>
<!-- User&#45;&gt;PushToken -->
<g id="edge91" class="edge"><title>User&#45;&gt;PushToken</title>
<path fill="none" stroke="#79fe1f" d="M1663.12,-227.893C1612.82,-215.495 1516.46,-191.738 1457.63,-177.236"/>
<ellipse fill="none" stroke="#79fe1f" cx="1667.31" cy="-228.928" rx="4.00001" ry="4.00001"/>
<polygon fill="#79fe1f" stroke="#79fe1f" points="1457.53,-177.21 1448.89,-170.447 1452.67,-176.013 1447.82,-174.816 1447.82,-174.816 1447.82,-174.816 1452.67,-176.013 1446.74,-179.185 1457.53,-177.21 1457.53,-177.21"/>
</g>
<!-- User&#45;&gt;Comment -->
<g id="edge89" class="edge"><title>User&#45;&gt;Comment</title>
<path fill="none" stroke="#fa111e" d="M1686.49,-262.083C1682.16,-270.762 1676.33,-280.105 1669,-287 1660.27,-295.206 1649.26,-301.803 1638.43,-306.961"/>
<ellipse fill="none" stroke="#fa111e" cx="1688.23" cy="-258.333" rx="4.00002" ry="4.00002"/>
<polygon fill="#fa111e" stroke="#fa111e" points="1638.16,-307.081 1627.19,-307.012 1633.59,-309.104 1629.01,-311.127 1629.01,-311.127 1629.01,-311.127 1633.59,-309.104 1630.83,-315.242 1638.16,-307.081 1638.16,-307.081"/>
</g>
<!-- User&#45;&gt;HorseFlag -->
<g id="edge90" class="edge"><title>User&#45;&gt;HorseFlag</title>
<path fill="none" stroke="#e0704b" d="M1689.35,-211.146C1687.09,-202.029 1684.71,-191.595 1683,-182 1674.57,-134.623 1668.99,-78.806 1666.17,-46.3107"/>
<ellipse fill="none" stroke="#e0704b" cx="1690.39" cy="-215.209" rx="4.00001" ry="4.00001"/>
<polygon fill="#e0704b" stroke="#e0704b" points="1666.16,-46.1951 1669.81,-35.8523 1665.74,-41.2128 1665.32,-36.2305 1665.32,-36.2305 1665.32,-36.2305 1665.74,-41.2128 1660.84,-36.6087 1666.16,-46.1951 1666.16,-46.1951"/>
</g>
<!-- User&#45;&gt;Task -->
<g id="edge88" class="edge"><title>User&#45;&gt;Task</title>
<path fill="none" stroke="#6bf75d" d="M1662.81,-246.151C1608.44,-260.88 1499.33,-296.364 1428,-359 1382.4,-399.039 1364.32,-471.573 1357.62,-510.896"/>
<ellipse fill="none" stroke="#6bf75d" cx="1666.87" cy="-245.073" rx="4.00001" ry="4.00001"/>
<polygon fill="#6bf75d" stroke="#6bf75d" points="1357.61,-510.947 1351.6,-520.122 1356.83,-515.886 1356.05,-520.824 1356.05,-520.824 1356.05,-520.824 1356.83,-515.886 1360.49,-521.527 1357.61,-510.947 1357.61,-510.947"/>
</g>
<!-- Task&#45;&gt;CustomFieldValue -->
<g id="edge98" class="edge"><title>Task&#45;&gt;CustomFieldValue</title>
<path fill="none" stroke="#58f4d0" d="M1318.93,-535.567C1274.91,-531.802 1197.47,-522.817 1134,-503 1098.71,-491.98 1093.75,-479.638 1059,-467 1035.99,-458.631 1010.11,-451.471 987.097,-445.847"/>
<ellipse fill="none" stroke="#58f4d0" cx="1323.03" cy="-535.903" rx="4" ry="4"/>
<polygon fill="#58f4d0" stroke="#58f4d0" points="986.812,-445.779 978.133,-439.076 981.949,-444.616 977.086,-443.453 977.086,-443.453 977.086,-443.453 981.949,-444.616 976.039,-447.829 986.812,-445.779 986.812,-445.779"/>
</g>
<!-- Task&#45;&gt;Tag -->
<g id="edge97" class="edge"><title>Task&#45;&gt;Tag</title>
<path fill="none" stroke="#d77dab" d="M1317.35,-534.557C1261.45,-529.102 1151.61,-517.58 1059,-503 938.863,-484.087 797.737,-454.032 733.299,-439.871"/>
<polygon fill="#d77dab" stroke="#d77dab" points="1317.51,-534.573 1327.03,-540.014 1322.49,-535.054 1327.46,-535.535 1327.46,-535.535 1327.46,-535.535 1322.49,-535.054 1327.9,-531.056 1317.51,-534.573 1317.51,-534.573"/>
<polygon fill="#d77dab" stroke="#d77dab" points="733.032,-439.813 724.236,-433.264 728.15,-438.736 723.267,-437.659 723.267,-437.659 723.267,-437.659 728.15,-438.736 722.298,-442.053 733.032,-439.813 733.032,-439.813"/>
</g>
<!-- Task&#45;&gt;TaskImage -->
<g id="edge99" class="edge"><title>Task&#45;&gt;TaskImage</title>
<path fill="none" stroke="#a2bbdf" d="M1380.52,-522.014C1388.99,-516.425 1398.19,-509.829 1406,-503 1422.07,-488.941 1438.01,-470.925 1449.84,-456.56"/>
<ellipse fill="none" stroke="#a2bbdf" cx="1376.98" cy="-524.291" rx="4.00002" ry="4.00002"/>
<polygon fill="#a2bbdf" stroke="#a2bbdf" points="1450.01,-456.354 1459.79,-451.412 1453.15,-452.467 1456.3,-448.581 1456.3,-448.581 1456.3,-448.581 1453.15,-452.467 1452.8,-445.75 1450.01,-456.354 1450.01,-456.354"/>
</g>
<!-- Task&#45;&gt;TaskLog -->
<g id="edge96" class="edge"><title>Task&#45;&gt;TaskLog</title>
<path fill="none" stroke="#3ee587" d="M1384.22,-526.067C1400.32,-519.547 1420.38,-511.156 1438,-503 1474.45,-486.126 1515.3,-464.986 1543.23,-450.18"/>
<ellipse fill="none" stroke="#3ee587" cx="1380.38" cy="-527.615" rx="4.00001" ry="4.00001"/>
<polygon fill="#3ee587" stroke="#3ee587" points="1543.35,-450.114 1554.29,-449.389 1547.76,-447.765 1552.18,-445.416 1552.18,-445.416 1552.18,-445.416 1547.76,-447.765 1550.06,-441.444 1543.35,-450.114 1543.35,-450.114"/>
</g>
<!-- Task&#45;&gt;Comment -->
<g id="edge95" class="edge"><title>Task&#45;&gt;Comment</title>
<path fill="none" stroke="#95cf05" d="M1363.98,-513.82C1378.22,-479.699 1403.48,-420.697 1411,-413 1449.16,-373.969 1507.89,-349.711 1548.69,-336.564"/>
<ellipse fill="none" stroke="#95cf05" cx="1362.32" cy="-517.814" rx="4.00001" ry="4.00001"/>
<polygon fill="#95cf05" stroke="#95cf05" points="1548.85,-336.514 1559.74,-337.832 1553.63,-335.025 1558.4,-333.536 1558.4,-333.536 1558.4,-333.536 1553.63,-335.025 1557.06,-329.241 1548.85,-336.514 1548.85,-336.514"/>
</g>
<!-- Authlogic::Session::Base -->
<g id="node48" class="node"><title>Authlogic::Session::Base</title>
<ellipse fill="none" stroke="black" cx="2612" cy="-738.5" rx="99.5434" ry="18"/>
<text text-anchor="middle" x="2612" y="-734.3" font-family="Times,serif" font-size="14.00">Authlogic::Session::Base</text>
</g>
<!-- Authlogic::Session::Base&#45;&gt;UserSession -->
<g id="edge17" class="edge"><title>Authlogic::Session::Base&#45;&gt;UserSession</title>
<path fill="none" stroke="black" d="M2612,-720.243C2612,-704.395 2612,-681.035 2612,-665.204"/>
</g>
</g>
</svg>
